<?xml version="1.0" encoding="UTF-8" standalone="no"?>
<svg
   width="248"
   height="408"
   viewBox="0 0 248 408"
   fill="none"
   version="1.1"
   id="svg28"
   sodipodi:docname="altium-designer.svg"
   inkscape:version="1.4 (e7c3feb1, 2024-10-09)"
   xmlns:inkscape="http://www.inkscape.org/namespaces/inkscape"
   xmlns:sodipodi="http://sodipodi.sourceforge.net/DTD/sodipodi-0.dtd"
   xmlns="http://www.w3.org/2000/svg"
   xmlns:svg="http://www.w3.org/2000/svg">
  <sodipodi:namedview
     id="namedview28"
     pagecolor="#ffffff"
     bordercolor="#000000"
     borderopacity="0.25"
     inkscape:showpageshadow="2"
     inkscape:pageopacity="0.0"
     inkscape:pagecheckerboard="0"
     inkscape:deskcolor="#d1d1d1"
     inkscape:zoom="0.77158471"
     inkscape:cx="338.91288"
     inkscape:cy="219.67776"
     inkscape:window-width="1920"
     inkscape:window-height="1080"
     inkscape:window-x="0"
     inkscape:window-y="0"
     inkscape:window-maximized="0"
     inkscape:current-layer="svg28" />
  <path
     fill-rule="evenodd"
     clip-rule="evenodd"
     d="m 62.154,273.367 v 72.427 L 17.0405,371.48 c -1.634,0.898 -3.5055,1.409 -5.4941,1.409 -6.17616,0 -11.225654,-4.926 -11.5250355,-11.108 L 5.71512e-4,361.765 3.05176e-5,316.947 H 0.00111251 l 6.8212e-4,-1.322 c 0,-4.651 2.68714537,-8.671 6.57298537,-10.553 z"
     fill="url(#paint0_linear_4814_6)"
     id="path1"
     style="fill:url(#paint0_linear_4814_6)" />
  <path
     fill-rule="evenodd"
     clip-rule="evenodd"
     d="m 16.8514,35.7932 c 0.2132,0.1141 45.3024,26.1005 45.3024,26.1005 0,0 -3e-4,55.5813 -3e-4,66.0813 0,1.053 -0.5591,2.026 -1.4685,2.557 -7.7016,4.492 -43.5609,25.411 -56.23405,32.803 -0.91531,0.534 -2.04632,0.538 -2.96535,0.01 -0.91889,-0.527 -1.4855694824,-1.506 -1.4855694824,-2.566 0,-22.968 0,-114.8839 0,-114.8839 L 0.0188477,45.8722 C 0.147416,39.5491 5.24579,34.4561 11.5072,34.4561 c 1.4493,0 2.8365,0.2729 4.114,0.7709 z"
     fill="url(#paint1_linear_4814_6)"
     id="path2"
     style="fill:url(#paint1_linear_4814_6)" />
  <path
     fill-rule="evenodd"
     clip-rule="evenodd"
     d="m 0.00111251,315.693 c 0,0.147 -7.52722e-4,-49.053 -0.0010819871,-69.308 C -1.10679e-4,241.093 2.82529,236.204 7.41019,233.562 30.5551,220.226 101.048,179.606 119.46,168.997 c 0.915,-0.528 2.043,-0.527 2.958,0.002 0.915,0.529 1.479,1.505 1.479,2.562 0,14.606 0,55.987 0,64.933 0,1.063 -0.57,2.045 -1.493,2.571 -13.62,7.77 -115.8299,66.075 -115.8299,66.075 -3.88585,1.882 -6.57298749,5.902 -6.57298749,10.553 z"
     fill="url(#paint2_linear_4814_6)"
     id="path3"
     style="fill:url(#paint2_linear_4814_6)" />
  <path
     fill-rule="evenodd"
     clip-rule="evenodd"
     d="m 17.1927,371.332 0.0102,0.006 c 0,0 129.1491,-74.303 161.7801,-93.077 4.589,-2.64 7.419,-7.532 7.419,-12.827 0,-25.106 0,-98.363 0,-123.469 0,-5.295 -2.83,-10.187 -7.419,-12.827 C 146.345,110.36 17.145,36.0278 17.145,36.0278 l -0.0089,0.0055 C 15.446,35.0497 13.4874,34.4871 11.4,34.4871 c -1.1834,0 -3.25056,0.5393 -4.32559,0.8752 0,0 40.93539,-23.5475 58.04829,-33.39145 4.5694,-2.628521 10.1921,-2.627674 14.7608,0.00179 C 108.471,18.4266 211.748,77.8697 240.399,94.3603 c 4.588,2.6408 7.416,7.5317 7.416,12.8257 0,34.133 0,160.353 0,194.499 0,5.298 -2.832,10.192 -7.426,12.832 -28.515,16.384 -130.812,75.163 -159.2068,91.479 -4.5561,2.617 -10.1587,2.623 -14.72,0.014 C 48.9976,396.02 6.521,371.724 6.521,371.724 c 1.50448,0.729 3.18862,1.137 4.9661,1.137 2.0749,0 4.0224,-0.556 5.7056,-1.529 z"
     fill="url(#paint3_linear_4814_6)"
     id="path4"
     style="fill:url(#paint3_linear_4814_6)" />
  <defs
     id="defs28">
    <linearGradient
       id="paint0_linear_4814_6"
       x1="50.508701"
       y1="352.51801"
       x2="18.965099"
       y2="297.884"
       gradientUnits="userSpaceOnUse">
      <stop
         stop-color="#D9C185"
         id="stop18" />
      <stop
         offset="1"
         stop-color="#8E783E"
         id="stop19" />
    </linearGradient>
    <linearGradient
       id="paint1_linear_4814_6"
       x1="-3.80672"
       y1="160.88901"
       x2="47.7981"
       y2="50.224098"
       gradientUnits="userSpaceOnUse">
      <stop
         offset="0.181679"
         stop-color="#D9C185"
         id="stop20" />
      <stop
         offset="1"
         stop-color="#907C44"
         id="stop21" />
    </linearGradient>
    <linearGradient
       id="paint2_linear_4814_6"
       x1="8.8556299"
       y1="321.44299"
       x2="112.178"
       y2="162.34399"
       gradientUnits="userSpaceOnUse">
      <stop
         stop-color="#D9C185"
         id="stop22" />
      <stop
         offset="0.278147"
         stop-color="#C8B176"
         id="stop23" />
      <stop
         offset="1"
         stop-color="#9F8951"
         id="stop24" />
    </linearGradient>
    <linearGradient
       id="paint3_linear_4814_6"
       x1="127.168"
       y1="-1.45015e-05"
       x2="127.168"
       y2="407.96301"
       gradientUnits="userSpaceOnUse">
      <stop
         stop-color="#D9C185"
         id="stop25" />
      <stop
         offset="0.225264"
         stop-color="#CEB67A"
         id="stop26" />
      <stop
         offset="0.622149"
         stop-color="#B0995E"
         id="stop27" />
      <stop
         offset="1"
         stop-color="#8E783E"
         id="stop28" />
    </linearGradient>
  </defs>
</svg>
